<svg data-v-20f80490="" version="1.0" xmlns="http://www.w3.org/2000/svg" xmlns:xlink="http://www.w3.org/1999/xlink" width="100%" height="100%" viewBox="0 0 340.000000 250.000000" preserveAspectRatio="xMidYMid meet" color-interpolation-filters="sRGB" style="margin: auto;"><rect data-v-20f80490="" x="0" y="0" width="100%" height="100%" fill="#ffffff" fill-opacity="0" class="background"></rect> <rect data-v-20f80490="" x="0" y="0" width="100%" height="100%" fill="url(#watermark)" fill-opacity="1" class="watermarklayer"></rect> <g data-v-20f80490="" fill="#333" class="icon-text-wrapper icon-svg-group iconsvg" transform="translate(18,5.59326171875)"><g class="iconsvg-imagesvg" opacity="1"><g><rect fill="#333" fill-opacity="0" stroke-width="2" x="0" y="0" width="304.0000000000001" height="238.81347410759182" class="image-rect"></rect> <svg filter="url(#colors3936919332)" x="0" y="0" width="304.0000000000001" height="238.81347410759182" filtersec="colorsf6973599375" class="image-svg-svg primary"><svg xmlns="http://www.w3.org/2000/svg" xmlns:xlink="http://www.w3.org/1999/xlink" xml:space="preserve" version="1.1" viewBox="0 -0.27687740325927734 304 238.8126678466797" x="0px" y="0px" fill-rule="evenodd" clip-rule="evenodd"><defs></defs><g><path d="M2 149l52 -69 11 11 41 -61 26 46 12 -18 38 64 8 -12 39 55 8 -15 67 32 -18 4 -45 -18 -9 16 -41 -51 -13 18 -33 -70c0,0 -12,34 -13,32 -1,-2 -27,-59 -27,-59l-42 66 -9 -25 -28 49 -24 5z"></path><path d="M183 22c5,-10 15,-8 20,1 6,-10 10,-10 18,-3l-2 3c-9,-9 -11,-3 -15,7 -3,-7 -12,-19 -17,-6l-4 -2z"></path><path d="M224 31c4,-8 13,-7 17,1 5,-9 9,-9 16,-3l-2 3c-8,-8 -9,-3 -13,6 -3,-6 -10,-16 -15,-5l-3 -2z"></path><path d="M221 6c3,-8 12,-7 16,0 5,-8 9,-8 16,-2l-3 2c-8,-7 -9,-2 -13,6 -2,-5 -9,-15 -13,-5l-3 -1z"></path><path d="M0 161c21,-2 170,-7 173,15 5,27 -81,31 -82,38 -2,14 148,-1 164,-8l34 11c-22,8 -257,48 -233,-7 15,-16 89,-15 92,-32 1,-17 -115,-10 -148,-17l0 0z"></path></g></svg></svg> <defs><filter id="colors3936919332"><feColorMatrix type="matrix" values="0 0 0 0 0.19921875  0 0 0 0 0.19921875  0 0 0 0 0.19921875  0 0 0 1 0" class="icon-fecolormatrix"></feColorMatrix></filter> <filter id="colorsf6973599375"><feColorMatrix type="matrix" values="0 0 0 0 0.99609375  0 0 0 0 0.99609375  0 0 0 0 0.99609375  0 0 0 1 0" class="icon-fecolormatrix"></feColorMatrix></filter> <filter id="colorsb212632209"><feColorMatrix type="matrix" values="0 0 0 0 0  0 0 0 0 0  0 0 0 0 0  0 0 0 1 0" class="icon-fecolormatrix"></feColorMatrix></filter></defs></g></g> <g transform="translate(177.41874998807907,196.8134765625)"><g data-gra="path-name" fill-rule="" class="tp-name iconsvg-namesvg" opacity="0.4780159410073541" transform="matrix(1,0,0,1,0,10.439681179852919)"><g transform="scale(0.01)"><g><path d="M15.87-22.53C18.36-16.71 20.97-11.91 26.01-8.49L28.38-11.64C23.94-14.73 21.33-18.18 19.17-23.91ZM9.87-23.52C8.04-18.96 4.92-14.73 0.93-11.13L3.66-8.25C7.95-12.48 11.25-17.16 13.44-22.29ZM16.05-7.38C16.98-6.09 18-4.47 19.05-2.79C16.02-2.52 12.75-2.28 10.26-2.13C11.94-4.14 14.58-8.70 16.50-12.87L12.90-14.31C10.83-9.84 8.01-5.07 6.30-3.12C5.61-2.37 5.04-2.10 4.20-1.89L5.34 2.04C5.91 1.92 6.57 1.83 7.29 1.74C11.22 1.35 16.95 0.99 20.97 0.60C21.48 1.53 21.96 2.34 22.35 3.15L25.47 0.84C23.94-2.04 21.36-6.27 19.11-9.24ZM51.93-2.28C51.93-1.08 51.66-0.81 50.46-0.66L48.57-0.39L49.89 3.33L52.26 3C55.26 2.61 55.83 1.77 55.83-1.92L55.83-23.10L33.66-23.10L33.66-19.41L51.93-19.41ZM50.85-17.43L31.98-17.43L31.98-14.04L50.85-14.04ZM33.99-11.94L33.99-0.66L48.72-0.66L48.72-11.94ZM44.79-4.20L37.92-4.20L37.92-8.43L44.79-8.43ZM85.11-21.48L73.80-21.48C74.28-22.11 74.70-22.77 75.15-23.40L71.28-24.12C69.18-21.30 65.22-17.61 61.50-15.33L63.81-12.24C65.01-13.05 66.15-13.89 67.26-14.76C68.43-13.92 69.66-12.87 70.71-11.88C67.62-10.41 64.08-9.06 59.88-7.89L61.62-4.62C63.09-5.07 64.47-5.52 65.79-6L65.79 2.31L84.81 2.31L84.81-10.08L75-10.08C79.11-12.36 82.35-14.91 85.11-17.94ZM73.41-14.49C72.48-15.33 71.19-16.35 69.99-17.22L70.71-17.94L80.13-17.94C77.97-15.99 75.15-14.07 71.55-12.27ZM81.15-1.11L69.45-1.11L69.45-6.54L81.15-6.54ZM98.43-5.91L100.56-8.13C99.84-9.09 98.55-10.77 97.98-11.40L97.08-10.74L97.08-12.96L99.57-12.96L99.57-13.74L102.06-12.42C102.90-13.95 103.65-15.51 104.34-17.19L112.17-17.19C111.66-16.02 111.09-14.97 110.46-14.01L113.64-12.78C114.48-14.13 115.26-15.60 115.98-17.19L115.98-20.76L105.66-20.76C105.93-21.63 106.20-22.50 106.44-23.37L102.99-23.94C102.27-21.06 101.01-17.64 99.57-15.09L99.57-16.38L97.08-16.38L97.08-19.38C98.25-19.59 99.27-19.80 100.11-20.04L99.63-23.43C97.05-22.80 93.18-22.14 90.69-21.81L90.99-18.42L93.72-18.81L93.72-16.38L90.63-16.38L90.63-12.96L93.63-12.96C92.46-10.17 90.90-7.41 89.22-5.04L91.14-2.34C92.04-3.66 92.91-5.19 93.72-6.90L93.72 2.91L97.08 2.91L97.08-8.01ZM105.75-1.80C105.75-0.84 105.51-0.72 104.40-0.60L102.78-0.42L103.92 3.15L105.75 2.97C108.24 2.73 109.32 2.10 109.32-0.45L109.32-15.30L105.75-15.45ZM109.74-9.99C111.27-7.35 113.10-2.97 114.21 0.24L117.18-1.65C116.31-4.02 114-8.82 112.56-11.46ZM101.94-11.37C100.98-7.95 98.91-3.66 97.23-1.20L100.47 0.12C102.15-2.85 103.77-6.93 104.91-10.38Z" transform="translate(-0.9300000071525574, 24.4921875) skewX(0)"></path></g> <!----> <!----> <!----> <!----> <!----> <!----> <!----></g></g> <!----></g></g><defs v-gra="od"></defs></svg>